<svg width="18" height="18" viewBox="0 0 18 18" fill="none" xmlns="http://www.w3.org/2000/svg">
<path d="M12.9237 7.33301C12.9237 6.27214 12.502 5.25473 11.7513 4.50458C11.0006 3.75444 9.98252 3.33301 8.92091 3.33301C7.85931 3.33301 6.84119 3.75444 6.09052 4.50458C5.33986 5.25473 4.91814 6.27214 4.91814 7.33301C4.91814 11.9997 2.91675 13.333 2.91675 13.333H14.9251C14.9251 13.333 12.9237 11.9997 12.9237 7.33301Z" stroke="white" stroke-width="2" stroke-linecap="round" stroke-linejoin="round"/>
<path d="M10.0749 16C9.95758 16.2021 9.78923 16.3698 9.58668 16.4864C9.38413 16.6029 9.15448 16.6643 8.92074 16.6643C8.68699 16.6643 8.45734 16.6029 8.25479 16.4864C8.05224 16.3698 7.88389 16.2021 7.7666 16" stroke="white" stroke-width="2" stroke-linecap="round" stroke-linejoin="round"/>
<ellipse cx="13.9242" cy="4" rx="4.00281" ry="4" fill="#E83F5B"/>
<path d="M12.2109 2.922C12.2269 2.47 12.3669 2.124 12.6309 1.884C12.8949 1.64 13.2629 1.518 13.7349 1.518C14.0429 1.518 14.3049 1.572 14.5209 1.68C14.7409 1.784 14.9069 1.928 15.0189 2.112C15.1309 2.292 15.1869 2.496 15.1869 2.724C15.1869 2.996 15.1209 3.214 14.9889 3.378C14.8569 3.538 14.7069 3.646 14.5389 3.702V3.726C15.0229 3.906 15.2649 4.25 15.2649 4.758C15.2649 5.01 15.2069 5.232 15.0909 5.424C14.9749 5.616 14.8069 5.766 14.5869 5.874C14.3669 5.982 14.1049 6.036 13.8009 6.036C13.3009 6.036 12.9049 5.916 12.6129 5.676C12.3249 5.432 12.1749 5.06 12.1629 4.56H13.3089C13.3009 4.72 13.3349 4.844 13.4109 4.932C13.4869 5.02 13.6009 5.064 13.7529 5.064C13.8689 5.064 13.9589 5.028 14.0229 4.956C14.0909 4.884 14.1249 4.788 14.1249 4.668C14.1249 4.516 14.0749 4.404 13.9749 4.332C13.8789 4.26 13.7209 4.224 13.5009 4.224H13.2909V3.27H13.4949C13.6469 3.274 13.7749 3.25 13.8789 3.198C13.9869 3.142 14.0409 3.032 14.0409 2.868C14.0409 2.744 14.0109 2.652 13.9509 2.592C13.8909 2.528 13.8089 2.496 13.7049 2.496C13.5889 2.496 13.5029 2.538 13.4469 2.622C13.3949 2.702 13.3649 2.802 13.3569 2.922H12.2109Z" fill="white"/>
</svg>
